Motion_pl09
version=1
nRows=9
nColumns=43
inDegrees=yes
endheader
time	pelvis_tilt	pelvis_list	pelvis_rotation	pelvis_tx	pelvis_ty	pelvis_tz	hip_flexion_r	hip_adduction_r	hip_rotation_r	knee_angle_r	ankle_angle_r	subtalar_angle_r	mtp_angle_r	hip_flexion_l	hip_adduction_l	hip_rotation_l	knee_angle_l	ankle_angle_l	subtalar_angle_l	mtp_angle_l	lumbar_extension	lumbar_bending	lumbar_rotation	neck_flexion	neck_lateral_bending	neck_rotation	arm_flex_r	arm_add_r	arm_rot_r	elbow_flex_r	pro_sup_r	wrist_flex_r	wrist_dev_r	hand_finger_flex_r	arm_flex_l	arm_add_l	arm_rot_l	elbow_flex_l	pro_sup_l	wrist_flex_l	wrist_dev_l	hand_finger_flex_l
      2.19000000	      4.97514066	    -21.52577940	     94.95506421	     -0.02422203	      1.66772970	      1.48392472	     75.30682909	     -6.90942519	      8.80169601	   -131.88739317	     -0.29101163	      8.13714313	     20.63071041	     64.64732795	     -9.18012916	      7.05312167	   -131.74958242	     29.40256592	      8.46807401	     16.39171920	    -34.04500031	      1.44494954	     -1.65975845	     24.84067163	      9.51328312	     -1.20333603	    108.89067768	     -8.03119370	     23.44315497	     59.85656915	     75.49972399	      5.10826199	    -10.26564024	    -38.31211884	    116.77436418	     -4.37139081	     27.09058736	     50.36191369	    100.66000532	    -10.57615915	     -5.98903938	    -13.08572037
      2.19250000	      5.16440530	    -21.36778814	     95.07293551	     -0.02422430	      1.66880619	      1.47936762	     74.90406975	     -6.81233113	      8.44845706	   -131.56942395	     -1.75829202	      7.58305055	     20.66726739	     63.89599625	     -9.36596361	      7.09077352	   -131.45094226	     29.18855182	      8.21420835	     16.47693852	    -33.86376376	      1.62763278	     -1.65519481	     24.28477468	      9.59383211	     -1.13073919	    108.76868648	     -7.96747332	     23.35395910	     59.55340395	     75.55220952	      5.57619974	    -10.66064394	    -37.90102946	    116.60794595	     -4.31561284	     26.85843102	     50.12758225	    100.91880627	    -10.66148091	     -6.26796974	    -13.16185758
      2.19500000	      5.36723168	    -21.17732912	     95.18973811	     -0.02423651	      1.66991113	      1.47479614	     74.49570044	     -6.71105370	      8.06922836	   -131.21769040	     -3.34758547	      6.93163282	     20.69978282	     63.14512830	     -9.56392819	      7.13555840	   -131.16113974	     28.95579099	      7.93400593	     16.54809057	    -33.70722955	      1.81989541	     -1.64511929	     23.73465048	      9.68287001	     -1.04434266	    108.62257491	     -7.90207642	     23.32981505	     59.26137276	     75.85497276	      5.88972720	    -11.00909162	    -37.51407736	    116.41902286	     -4.24349491	     26.61795250	     49.88427106	    101.16591440	    -10.73847862	     -6.51555723	    -13.27991638
      2.19750000	      5.61225929	    -20.93341449	     95.31798038	     -0.02420130	      1.67118240	      1.47012188	     73.99322854	     -6.59104188	      7.54466011	   -130.79553815	     -4.97273063	      5.81247022	     20.89294659	     62.35095504	     -9.78933657	      7.23965360	   -130.85429154	     28.67302089	      7.62705863	     16.67224038	    -33.62119958	      2.05365898	     -1.60116146	     23.21339486	      9.75890351	     -0.96990170	    108.46876233	     -7.87712176	     23.34038043	     59.01139481	     76.65569321	      6.12855537	    -11.49293952	    -36.87819982	    116.18917806	     -4.24415338	     26.38034912	     49.73503265	    101.58269400	    -10.69294363	     -6.86427323	    -13.46094768
      2.20000000	      5.72995799	    -20.81157524	     95.40651499	     -0.02428503	      1.67211740	      1.46547212	     73.68299154	     -6.55743413	      7.32578096	   -130.41115074	     -6.43791416	      5.84576202	     20.87268981	     61.65473115	     -9.90231076	      7.24343285	   -130.55600735	     28.40842108	      7.50725463	     16.67348224	    -33.36170268	      2.16367943	     -1.63190023	     22.46111687	      9.92714845	     -0.98858124	    108.22217759	     -7.91203607	     23.44242999	     58.94622692	     76.87955742	      6.15609483	    -11.53833810	    -36.71607145	    115.87022211	     -4.21177655	     26.19876458	     49.65787085	    101.60168943	    -10.78659093	     -6.88327139	    -13.55025929
      2.20250000	      5.95479843	    -20.50822810	     95.47255420	     -0.02425218	      1.67341334	      1.46079702	     73.19325034	     -6.40398910	      6.78182648	   -129.92360012	     -8.46339803	      4.36857388	     21.09836840	     60.80663078	    -10.16512883	      7.25849493	   -130.26311180	     28.05742304	      7.00403869	     16.74546504	    -33.34896917	      2.36409384	     -1.55898093	     22.04377219	      9.97524654	     -0.82866848	    108.09487416	     -7.85892750	     23.47116325	     58.63577617	     77.92594882	      6.14005266	    -12.06546423	    -35.73624963	    115.65137352	     -4.14971709	     25.88937636	     49.42466238	    101.95138186	    -10.75798054	     -7.16622623	    -13.76019186
      2.20500000	      6.04387300	    -20.37917173	     95.53216856	     -0.02438203	      1.67424715	      1.45604789	     72.91176018	     -6.40940508	      6.55642761	   -129.51070365	     -9.84183886	      4.49113963	     21.10874312	     60.09899172	    -10.25373907	      7.24933606	   -129.98016865	     27.72839766	      6.93879805	     16.73489044	    -33.08164765	      2.45161204	     -1.58542441	     21.28779290	     10.12796666	     -0.84410476	    107.79766352	     -7.93349522	     23.59769090	     58.62141768	     78.11336621	      6.18846226	    -12.12321576	    -35.46686205	    115.27460113	     -4.14815122	     25.71947778	     49.39339584	    101.94767339	    -10.84560350	     -7.17749946	    -13.82895822
      2.20750000	      6.31527150	    -20.08425504	     95.66619519	     -0.02443024	      1.67543744	      1.45134172	     72.44536118	     -6.29844591	      5.99864646	   -128.95434327	    -11.92225029	      3.31560404	     23.31076658	     59.30320767	    -10.47348187	      7.41932616	   -129.69770380	     27.41131147	      6.75450479	     17.08483456	    -33.02468355	      2.74226156	     -1.56424446	     20.74142441	     10.11020828	     -0.56404749	    107.53953945	     -7.72475615	     23.40870433	     58.28434813	     79.90197445	      4.79089640	    -12.81645338	    -30.74771273	    114.92867034	     -4.08262136	     25.17175597	     49.23674413	    102.64230218	    -10.61331059	     -7.29727765	    -14.12637524
      2.21000000	      6.31044581	    -19.88837968	     95.53784979	     -0.02446907	      1.67643520	      1.44659603	     72.18115942	     -6.19835015	      5.80809604	   -128.47343784	    -13.56466865	      2.60463805	     23.59158368	     58.48397828	    -10.62137983	      7.16135536	   -129.38825820	     26.87076990	      6.11886558	     17.05106893	    -32.88210179	      2.69657428	     -1.49727417	     20.16041220	     10.17740626	     -0.56898247	    107.36912579	     -7.84194863	     23.70357816	     58.15438250	     79.59438994	      4.76715899	    -13.02531185	    -29.87222871	    114.58615106	     -4.10678047	     25.03536939	     49.17544144	    102.53329837	    -10.73559894	     -7.49722063	    -14.15229804
